<?xml version="1.0" standalone="no"?>
<!DOCTYPE svg PUBLIC "-//W3C//DTD SVG 20010904//EN"
 "http://www.w3.org/TR/2001/REC-SVG-20010904/DTD/svg10.dtd">
<svg version="1.0" xmlns="http://www.w3.org/2000/svg"
 width="2112.000000pt" height="2112.000000pt" viewBox="0 0 2112.000000 2112.000000"
 preserveAspectRatio="xMidYMid meet">
<metadata>
Created by potrace 1.11, written by Peter Selinger 2001-2013
</metadata>
<g transform="translate(0.000000,2112.000000) scale(0.100000,-0.100000)"
fill="#000000" stroke="none">
<path d="M13131 12109 c-20 -9 -45 -32 -56 -50 -18 -32 -20 -56 -21 -479 -1
-245 -2 -446 -3 -447 0 0 -41 38 -90 87 -99 98 -194 164 -281 195 -3 1 -12 4
-20 8 -8 3 -28 9 -45 13 -16 4 -37 9 -45 11 -13 3 -173 3 -252 -1 -16 0 -28
-5 -28 -9 0 -5 -4 -6 -10 -2 -11 6 -168 -30 -220 -52 -197 -81 -364 -201 -478
-341 -51 -63 -122 -172 -122 -187 0 -7 -4 -15 -8 -17 -20 -8 -105 -236 -118
-318 -3 -19 -7 -37 -9 -40 -17 -28 -26 -347 -13 -440 12 -81 28 -152 49 -224
12 -39 22 -73 22 -76 3 -19 118 -227 155 -280 38 -54 174 -197 224 -235 136
-106 318 -186 498 -220 74 -14 284 -15 335 -1 118 31 250 114 379 240 82 79
90 81 101 28 15 -78 90 -218 124 -231 16 -7 112 -10 256 -8 208 2 233 4 262
21 18 11 38 34 45 50 18 43 19 2872 2 2923 -13 37 -45 69 -84 86 -15 6 -124
11 -269 11 -206 1 -250 -1 -280 -15z m-421 -1323 c408 -145 531 -668 230 -976
-57 -58 -159 -129 -193 -134 -7 -1 -16 -4 -22 -8 -5 -3 -26 -9 -45 -14 -19 -4
-42 -9 -50 -11 -39 -10 -174 -9 -229 3 -199 41 -357 203 -407 419 -16 72 -21
202 -9 265 8 44 35 142 43 155 4 6 7 16 8 23 2 8 10 22 18 31 9 10 16 21 16
25 0 15 75 102 118 138 102 83 207 117 352 113 73 -1 112 -8 170 -29z"/>
<path d="M16047 12117 c-25 -6 -47 -21 -65 -45 l-27 -35 -2 -421 c-1 -232 -2
-436 -2 -455 l-1 -34 -73 74 c-81 82 -133 129 -144 129 -3 0 -14 6 -22 14 -24
22 -131 73 -181 86 -74 20 -81 21 -185 19 -142 -2 -155 -3 -155 -9 0 -3 -10
-5 -22 -6 -71 -2 -219 -49 -327 -104 -358 -181 -595 -544 -636 -975 -21 -212
17 -473 92 -645 75 -170 145 -274 267 -395 138 -136 289 -226 466 -279 111
-32 132 -36 277 -43 120 -5 173 1 240 29 15 6 30 12 33 13 77 26 195 114 321
237 26 26 50 44 53 40 3 -5 15 -35 27 -68 55 -149 86 -198 133 -209 12 -3 123
-4 248 -3 212 3 228 4 255 24 60 45 56 -49 58 1494 0 778 -2 1432 -6 1453 -7
42 -38 80 -84 105 -25 13 -71 16 -265 17 -129 0 -252 -3 -273 -8z m-517 -1309
c75 -13 183 -61 226 -99 11 -11 23 -19 26 -19 11 0 89 -84 117 -125 72 -105
109 -236 106 -367 -2 -45 -7 -95 -14 -110 -6 -16 -8 -28 -5 -28 3 0 2 -6 -3
-12 -4 -7 -8 -15 -8 -18 -1 -3 -9 -22 -18 -44 -9 -21 -17 -40 -17 -43 0 -11
-67 -100 -105 -139 -75 -76 -200 -142 -303 -161 -48 -9 -186 -8 -237 2 -104
18 -263 127 -318 217 -41 66 -57 101 -71 150 -47 167 -37 349 26 487 110 238
338 356 598 309z"/>
<path d="M17273 12119 c-46 -9 -72 -32 -88 -74 -13 -35 -14 -235 -12 -1490 2
-1432 2 -1450 22 -1477 11 -15 34 -32 50 -38 18 -6 133 -9 292 -7 248 2 263 3
290 23 61 45 57 -53 58 1504 1 806 -3 1440 -8 1459 -5 19 -24 50 -42 69 l-32
35 -251 1 c-138 1 -264 -2 -279 -5z"/>
<path d="M3059 12066 c-2 -2 -49 -7 -104 -10 -55 -4 -113 -9 -130 -11 -16 -2
-52 -6 -80 -9 -27 -3 -86 -11 -130 -17 -44 -6 -89 -13 -100 -14 -11 -2 -47 -8
-80 -14 -33 -6 -78 -13 -100 -17 -22 -3 -43 -8 -46 -9 -3 -2 -28 -7 -55 -11
-27 -3 -53 -8 -57 -11 -5 -3 -23 -7 -40 -10 -43 -6 -151 -30 -194 -42 -2 -1
-4 -1 -5 -2 -2 0 -14 -2 -27 -5 -13 -2 -60 -14 -105 -25 -45 -12 -88 -22 -96
-24 -29 -6 -131 -33 -310 -80 -189 -51 -275 -152 -305 -360 -4 -22 -8 -51 -11
-65 -8 -44 -16 -117 -30 -275 -14 -166 -6 -783 11 -880 19 -102 61 -172 129
-214 48 -30 140 -51 293 -67 17 -1 51 -6 75 -10 24 -3 54 -7 68 -9 14 -1 28
-3 31 -3 3 -1 5 -32 3 -69 -3 -78 -13 -359 -19 -546 -6 -166 7 -201 85 -242
47 -25 125 -23 178 4 48 24 74 57 132 166 23 44 48 89 54 100 7 11 26 46 44
77 18 31 40 62 47 68 8 7 15 17 15 22 0 16 144 199 227 287 l78 84 390 3 c396
3 568 9 585 19 5 3 11 1 15 -5 4 -6 11 -8 16 -4 5 3 35 7 67 9 132 9 251 16
317 20 39 3 99 7 135 10 36 4 99 8 140 11 92 6 146 24 216 70 89 59 157 157
184 264 6 25 14 52 17 60 8 19 20 73 29 125 1 6 3 12 4 15 6 16 28 165 35 235
3 28 8 68 10 90 24 184 40 704 24 796 -10 56 -40 141 -60 171 -11 14 -19 29
-19 33 0 18 -89 97 -143 126 -53 28 -218 89 -236 87 -3 0 -8 1 -11 2 -3 1 -12
3 -20 5 -8 1 -51 10 -95 20 -44 9 -87 18 -96 20 -21 4 -71 12 -134 20 -27 4
-61 9 -75 12 -14 2 -47 6 -75 9 -27 2 -63 7 -80 10 -34 7 -579 16 -586 10z
m466 -170 c55 -4 111 -9 125 -11 14 -2 52 -6 85 -9 54 -6 86 -10 165 -21 14
-2 45 -7 70 -10 58 -9 318 -74 339 -85 9 -5 37 -18 62 -29 73 -32 138 -115
157 -201 6 -29 5 -227 -3 -375 -2 -55 -7 -145 -10 -200 -4 -93 -7 -125 -21
-245 -7 -64 -25 -191 -31 -215 -2 -11 -5 -29 -7 -40 -11 -69 -49 -202 -70
-243 -63 -124 -122 -154 -330 -168 -45 -3 -101 -7 -126 -8 -25 -2 -94 -7 -155
-10 -60 -4 -132 -9 -160 -11 -27 -3 -106 -7 -175 -10 -69 -3 -165 -8 -215 -10
-49 -2 -248 -4 -441 -5 l-352 -1 -88 -93 c-203 -212 -317 -375 -476 -678 -23
-44 -44 -63 -52 -49 -4 6 -4 86 -1 178 3 92 8 249 11 348 3 99 7 198 8 220 4
76 -28 112 -111 120 -32 3 -74 7 -93 10 -34 4 -81 9 -170 20 -25 3 -56 7 -70
10 -14 3 -38 7 -55 10 -80 16 -103 53 -113 185 -9 122 -8 708 2 815 12 133 14
147 19 180 3 17 8 51 11 76 4 26 12 67 20 93 8 25 11 46 8 46 -4 0 -2 4 3 8 6
4 15 16 21 27 17 32 68 61 136 79 35 9 115 30 178 46 63 17 122 33 130 35 29
7 155 37 170 40 8 2 47 11 85 20 39 9 79 19 90 21 11 2 65 13 120 24 147 30
144 29 215 41 36 5 79 12 95 15 17 3 45 7 64 10 19 2 46 6 61 9 52 9 106 16
165 20 33 2 70 7 83 9 12 3 78 8 145 12 67 3 123 7 124 8 5 4 259 -2 358 -8z"/>
<path d="M2052 11230 c-75 -25 -125 -71 -168 -157 -47 -94 -25 -222 52 -311
16 -18 34 -32 41 -32 7 0 13 -4 13 -8 0 -12 70 -32 112 -32 82 0 189 62 229
133 13 23 24 44 24 47 0 3 3 10 7 16 15 24 2 169 -19 214 -55 117 -171 169
-291 130z m107 -159 c8 -5 22 -26 31 -46 14 -29 15 -46 8 -78 -11 -51 -24 -66
-66 -84 -30 -12 -37 -12 -58 2 -25 16 -50 61 -48 85 1 8 2 25 3 37 1 25 49 86
61 78 5 -3 11 -1 15 5 8 12 35 13 54 1z"/>
<path d="M2809 11208 c-40 -17 -129 -101 -129 -121 0 -6 -6 -18 -13 -26 -22
-28 -40 -94 -38 -144 1 -49 30 -119 60 -147 54 -51 84 -63 160 -66 65 -2 84 1
131 23 100 48 154 129 153 233 0 80 -27 142 -88 203 -66 67 -151 83 -236 45z
m112 -158 c24 -13 49 -61 49 -95 0 -40 -53 -85 -99 -85 -74 0 -92 42 -51 123
29 58 63 77 101 57z"/>
<path d="M3552 11184 c-93 -46 -146 -140 -141 -246 6 -103 51 -181 131 -226
36 -20 120 -41 149 -36 64 10 81 14 113 29 30 14 61 44 105 100 14 19 31 93
34 150 9 182 -218 315 -391 229z m168 -152 c35 -14 48 -31 53 -72 9 -76 -32
-121 -106 -116 -61 5 -95 50 -92 126 1 61 71 91 145 62z"/>
<path d="M5782 11804 c-11 -7 -24 -26 -29 -41 -5 -16 -9 -593 -8 -1362 l0
-1333 23 -18 c20 -17 48 -18 329 -18 170 0 318 4 331 9 12 5 27 21 33 36 7 19
11 207 11 566 l-1 537 467 -2 466 -3 1 -545 c0 -345 4 -551 10 -561 22 -36 48
-39 361 -38 l307 1 23 24 c18 18 24 34 24 71 1 26 1 632 1 1345 l1 1297 -22
23 c-21 23 -22 23 -335 25 l-314 3 -28 -24 -28 -24 -1 -459 c-1 -252 -2 -460
-3 -463 -1 -3 -209 -5 -463 -5 l-463 1 -2 459 -2 460 -31 28 -31 28 -304 -2
c-242 -1 -307 -4 -323 -15z"/>
<path d="M19417 11454 c-1 -1 -38 -4 -82 -7 -144 -10 -285 -50 -423 -122 -113
-58 -126 -67 -231 -156 -120 -102 -210 -220 -286 -374 -100 -202 -129 -330
-129 -560 0 -166 2 -186 28 -296 30 -132 100 -286 183 -405 60 -87 258 -285
315 -315 13 -6 25 -15 28 -18 3 -3 15 -12 28 -19 130 -73 246 -122 347 -147
73 -18 80 -19 160 -31 70 -10 295 -11 295 -1 0 5 4 6 9 3 5 -3 31 -1 57 4 27
6 60 13 74 15 60 13 187 60 253 94 180 93 351 236 355 298 3 38 -12 78 -38
107 -25 27 -51 56 -125 141 -74 84 -92 101 -130 125 -37 23 -68 18 -120 -21
-103 -75 -153 -103 -230 -130 -202 -69 -368 -71 -522 -3 -82 35 -157 97 -208
170 -35 50 -83 180 -71 192 4 3 341 7 749 7 408 1 753 5 767 9 111 36 123 61
126 257 2 226 -29 369 -123 549 -25 47 -53 94 -64 106 -10 11 -19 24 -19 28 0
8 -4 13 -67 85 -60 68 -108 115 -153 149 -19 15 -37 29 -40 33 -15 17 -108 74
-177 108 -102 50 -233 95 -313 107 -66 10 -218 22 -223 18z m68 -579 c117 -6
204 -46 297 -137 65 -64 108 -119 108 -138 0 -5 4 -10 9 -10 5 0 11 -8 13 -17
3 -10 7 -22 9 -27 2 -6 -186 -9 -465 -9 -310 0 -471 3 -473 10 -9 25 168 243
198 243 4 0 14 6 21 13 20 20 119 64 156 70 19 3 36 8 39 11 3 3 10 3 15 0 5
-3 37 -7 73 -9z"/>
<path d="M8755 11412 c-10 -3 -29 -11 -42 -19 -47 -31 -49 -60 -47 -773 1
-366 4 -691 8 -722 18 -176 85 -360 187 -512 49 -74 210 -236 235 -236 7 0 14
-4 16 -8 10 -26 205 -110 294 -128 124 -24 273 -25 384 -1 85 18 212 79 283
137 68 55 155 157 188 221 11 23 22 39 24 37 4 -4 32 -106 40 -145 12 -64 29
-121 41 -140 8 -13 11 -23 7 -23 -17 0 43 -50 71 -59 40 -13 375 -12 400 2 23
11 75 67 78 82 0 5 2 492 4 1080 2 750 0 1083 -8 1113 -8 30 -21 51 -46 70
l-34 26 -262 0 c-143 0 -273 -3 -288 -7 -15 -4 -39 -23 -55 -43 l-27 -36 -1
-662 c-1 -474 -5 -672 -13 -702 -19 -66 -74 -141 -157 -211 -26 -23 -106 -64
-149 -77 -129 -39 -287 9 -399 121 -49 49 -102 143 -112 198 -2 17 -5 324 -5
683 0 375 -4 663 -10 677 -5 13 -21 32 -36 42 -24 15 -56 17 -288 18 -144 0
-270 -1 -281 -3z"/>
</g>
</svg>
